<?xml version="1.0" encoding="utf-8"?>
<svg version="1.1" id="Layer_1" xmlns="http://www.w3.org/2000/svg" xmlns:xlink="http://www.w3.org/1999/xlink" x="0px" y="0px"
	 viewBox="0 0 459.8 458.6" style="enable-background:new 0 0 459.8 458.6;" xml:space="preserve">
<style type="text/css">
	.st0{fill-rule:evenodd;clip-rule:evenodd;fill:#007F60;}
	.st1{opacity:0.15;fill-rule:evenodd;clip-rule:evenodd;enable-background:new    ;}
	.st2{clip-path:url(#SVGID_2_);}
	.st3{clip-path:url(#SVGID_4_);}
	.st4{opacity:0.15;enable-background:new    ;}
	.st5{clip-path:url(#SVGID_6_);}
	.st6{clip-path:url(#SVGID_8_);}
	.st7{clip-path:url(#SVGID_10_);}
	.st8{fill:#FFFFFF;}
</style>
<title>Temply Logo</title>
<path class="st0" d="M0,229.3C0,102.7,102.9,0,229.9,0s229.9,102.7,229.9,229.3S356.8,458.6,229.9,458.6S0,356,0,229.3z"/>
<path class="st1" d="M229.9,20.9c-115.4,0-209,93.3-209,208.5s93.6,208.5,209,208.5s209-93.3,209-208.5S345.3,20.9,229.9,20.9
	L229.9,20.9z M229.9,0c127,0,229.9,102.7,229.9,229.3S356.8,458.6,229.9,458.6S0,356,0,229.3S102.9,0,229.9,0z"/>
<g>
	<defs>
		<polygon id="SVGID_1_" points="-0.5,459.2 460.4,459.2 460.4,-0.6 -0.5,-0.6 -0.5,459.2 		"/>
	</defs>
	<clipPath id="SVGID_2_">
		<use xlink:href="#SVGID_1_"  style="overflow:visible;"/>
	</clipPath>
	<g class="st2">
		<g>
			<defs>
				<polygon id="SVGID_3_" points="145.7,370.4 335.7,370.4 335.7,106.4 145.7,106.4 145.7,370.4 				"/>
			</defs>
			<clipPath id="SVGID_4_">
				<use xlink:href="#SVGID_3_"  style="overflow:visible;"/>
			</clipPath>
			<g class="st3">
				<path class="st4" d="M295,370.2H178.7c-7.1,0-17.3-2.6-25.3-15c-13.2-20.3-9-47.9,9.8-64.1L227,236c3.3-2.9,60.7-54.2,76.2-67.5
					c10.1-8.7,12.5-23.4,5.5-34.2c-3-4.5-5.2-4.5-6-4.5H186.4c-6.1-0.2-11.9,2.9-15.1,8.1c-3.4,5.6-3.4,12.5,0,19
					c1.7,3.5,3.6,6.9,5.8,10.1c15.8,20.9,22,25.6,33.3,34.2l0.5,0.4c3,2.3,3.6,6.5,1.3,9.5c0,0,0,0,0,0v0.1l-5.8,7.3
					c-2.3,3-6.5,3.5-9.5,1.2l-0.5-0.3c-12.1-9.1-20-15.1-37.8-38.6c-1.2-1.6-3.4-4.7-7.8-13.4c-7.1-13.6-6.8-29.1,0.8-41.5
					c7.5-12.1,20.7-19.3,34.8-19.1h116.2c7.1,0,17.3,2.6,25.3,15c13.2,20.3,9,47.9-9.8,64.1c-15.4,13.3-75.3,66.8-76,67.3l-0.1,0.1
					l-63.9,55.2c-10.1,8.7-12.5,23.4-5.5,34.2c2.9,4.5,5.1,4.5,5.9,4.5H295c6.1,0.2,11.9-2.9,15.1-8.1c3.4-5.5,3.4-12.5,0-19
					c-1.7-3.5-3.6-6.9-5.8-10.1c-15.8-20.8-22.1-25.5-33.3-34.1l-0.5-0.4c-3-2.2-3.6-6.5-1.4-9.5c0,0,0,0,0,0l0.1-0.1l5.8-7.4
					c2.3-3,6.5-3.5,9.5-1.2l0.5,0.3c12,9.1,20,15.2,37.7,38.6c1.2,1.6,3.4,4.7,7.9,13.4c7.1,13.6,6.8,29.1-0.8,41.5
					C322.4,363.1,309.1,370.3,295,370.2L295,370.2z"/>
			</g>
		</g>
	</g>
</g>
<g>
	<defs>
		<polygon id="SVGID_5_" points="-0.5,459.2 460.4,459.2 460.4,-0.6 -0.5,-0.6 -0.5,459.2 		"/>
	</defs>
	<clipPath id="SVGID_6_">
		<use xlink:href="#SVGID_5_"  style="overflow:visible;"/>
	</clipPath>
	<g class="st5">
		<g>
			<defs>
				<polygon id="SVGID_7_" points="-0.5,459.2 460.4,459.2 460.4,-0.6 -0.5,-0.6 -0.5,459.2 				"/>
			</defs>
			<clipPath id="SVGID_8_">
				<use xlink:href="#SVGID_7_"  style="overflow:visible;"/>
			</clipPath>
			<g class="st6">
				<g>
					<defs>
						<polygon id="SVGID_9_" points="134.9,361.3 324.9,361.3 324.9,97.3 134.9,97.3 134.9,361.3 						"/>
					</defs>
					<clipPath id="SVGID_10_">
						<use xlink:href="#SVGID_9_"  style="overflow:visible;"/>
					</clipPath>
					<g class="st7">
						<path class="st8" d="M284.1,361H167.9c-7.1,0-17.3-2.6-25.3-15c-13.2-20.3-9-47.9,9.8-64.1l63.8-55.1
							c3.3-2.9,60.7-54.2,76.2-67.5c10.1-8.7,12.5-23.4,5.5-34.2c-3-4.5-5.2-4.5-6-4.5H175.6c-6.1-0.2-11.9,2.9-15.1,8.1
							c-3.4,5.6-3.4,12.5,0,19c1.7,3.5,3.6,6.9,5.8,10.1c15.9,20.9,22,25.6,33.3,34.2l0.5,0.4c3,2.2,3.6,6.5,1.3,9.5c0,0,0,0,0,0
							v0.1l-5.8,7.4c-2.3,3-6.5,3.5-9.5,1.2l-0.5-0.3c-12.1-9.1-20-15.1-37.8-38.6c-1.2-1.6-3.3-4.7-7.8-13.4
							c-7.1-13.6-6.8-29.1,0.8-41.5c7.4-12.1,20.7-19.3,34.8-19.2h116.3c7.1,0,17.3,2.6,25.3,15c13.2,20.3,9,47.9-9.8,64.1
							c-15.4,13.3-75.3,66.8-76,67.3l-0.1,0.1l-63.9,55.2c-10.1,8.7-12.5,23.4-5.5,34.2c2.9,4.5,5.1,4.5,6,4.5h116.2
							c6.1,0.2,11.9-2.9,15.1-8.1c3.4-5.5,3.4-12.5,0-19c-1.7-3.5-3.6-6.8-5.7-10c-15.9-20.9-22.1-25.6-33.3-34.2l-0.5-0.4
							c-3-2.2-3.6-6.5-1.4-9.5c0,0,0,0,0,0l0.1-0.1l5.8-7.4c2.3-3,6.5-3.5,9.5-1.2l0.5,0.3c12,9.1,20,15.2,37.7,38.6
							c1.2,1.6,3.4,4.7,7.9,13.4c7.1,13.6,6.8,29.1-0.8,41.5C311.5,354,298.3,361.2,284.1,361L284.1,361z"/>
					</g>
				</g>
			</g>
		</g>
	</g>
</g>
</svg>
