<svg xmlns="http://www.w3.org/2000/svg" xmlns:xlink="http://www.w3.org/1999/xlink" viewBox="0 0 1000 1000"><defs><style>.a{fill:none;}.b{fill:url(#a);}.c{clip-path:url(#b);}.d{fill:#fff;}</style><linearGradient id="a" x1="500" x2="500" y2="1000" gradientUnits="userSpaceOnUse"><stop offset="0" stop-color="#00af60"/><stop offset="0.24" stop-color="#00a660"/><stop offset="0.64" stop-color="#008c60"/><stop offset="0.82" stop-color="#007f60"/></linearGradient><clipPath id="b"><polygon class="a" points="242.37 862 760.72 862 760.72 142 242.37 142 242.37 862 242.37 862"/></clipPath></defs><title>Temply iOS</title><rect class="b" width="1000" height="1000"/><g class="c"><path class="d" d="M649.5,861.24h-317c-19.36,0-47.07-7.12-69.08-40.91-36-55.42-24.54-130.61,26.67-174.79L464.13,495.26c9-8,165.62-147.76,207.71-184.14,27.57-23.84,34-63.87,15-93.19-8.18-12.33-14.1-12.33-16.36-12.33h-317a47,47,0,0,0-41.26,22.17c-9.22,15.14-9.25,34,0,51.82a218.23,218.23,0,0,0,15.68,27.49c43.23,57,60,69.82,90.82,93.14l1.47,1.09a18.44,18.44,0,0,1,3.62,25.82l-.05.06v.16l-15.92,20.08a18.58,18.58,0,0,1-25.94,3.35l-1.26-.93c-32.89-24.79-54.54-41.15-103-105.13-3.3-4.37-9.11-12.85-21.38-36.49-19.26-37-18.52-79.48,2.18-113.27a110.1,110.1,0,0,1,95-52.25h317.1c19.37,0,47.08,7.14,69.06,40.91,36,55.42,24.54,130.55-26.65,174.73-42,36.28-205.5,182.19-207.27,183.66l-.38.33L331.14,692.8c-27.57,23.84-34,63.87-15,93.16,8,12.36,14,12.36,16.36,12.36h317a46.9,46.9,0,0,0,41.26-22.17c9.22-15.14,9.28-34,0-51.82a229.45,229.45,0,0,0-15.65-27.22c-43.28-57.08-60.19-69.9-90.9-93.19l-1.45-1.12A18.43,18.43,0,0,1,579,577l0,0,.28-.33,15.79-20.16a18.57,18.57,0,0,1,25.93-3.35l1.26.93C655,579,676.85,595.41,725.24,659.31c3.35,4.36,9.16,12.87,21.4,36.52,19.29,37.12,18.52,79.44-2.18,113.26a110,110,0,0,1-95,52.15Z"/></g></svg>